<?xml version="1.0" encoding="utf-8"?>
<!-- Generator: Adobe Illustrator 23.0.1, SVG Export Plug-In . SVG Version: 6.00 Build 0)  -->
<svg version="1.1" id="view_x5F_in_x5F_ar_x5F_icon"
	 xmlns="http://www.w3.org/2000/svg" xmlns:xlink="http://www.w3.org/1999/xlink" x="0px" y="0px" width="20px" height="20px"
	 viewBox="0 0 20 20" enable-background="new 0 0 20 20" xml:space="preserve">
<g id="Bounding_box">
	<rect id="Bounding_Box" x="0" y="0" fill="none" width="20" height="20"/>
</g>
<g id="Art_layer">
	<path d="M2.67,3.5c0-0.46,0.37-0.83,0.83-0.83H5V1H3.5C2.12,1,1,2.12,1,3.5V5h1.67V3.5z"/>
	<path d="M2.67,16.5c0,0.46,0.37,0.83,0.83,0.83H5V19H3.5C2.12,19,1,17.88,1,16.5V15h1.67V16.5z"/>
	<path d="M17.33,3.5c0-0.46-0.37-0.83-0.83-0.83H15V1h1.5C17.88,1,19,2.12,19,3.5V5h-1.67V3.5z"/>
	<path d="M17.33,16.5c0,0.46-0.37,0.83-0.83,0.83H15V19h1.5c1.38,0,2.5-1.12,2.5-2.5V15h-1.67V16.5z"/>
	<path d="M15.36,6.15l-4.71-2.73c-0.39-0.23-0.89-0.23-1.29,0L4.64,6.15C4.25,6.38,4,6.8,4,7.26v5.44c0,0.46,0.25,0.88,0.64,1.11
		l4.71,2.73c0.39,0.23,0.89,0.23,1.29,0l4.71-2.73c0.39-0.23,0.64-0.65,0.64-1.11V7.26C16,6.8,15.75,6.38,15.36,6.15z M5.71,12.46
		V8.5l3.43,1.99v3.95L5.71,12.46z M10,9L6.57,7.01L10,5.03l3.43,1.98L10,9z M10.86,14.44v-3.95l3.43-1.99v3.96L10.86,14.44z"/>
</g>
</svg>
